<?xml version="1.0" standalone="no"?>
<!DOCTYPE svg PUBLIC "-//W3C//DTD SVG 20010904//EN"
 "http://www.w3.org/TR/2001/REC-SVG-20010904/DTD/svg10.dtd">
<svg version="1.0" xmlns="http://www.w3.org/2000/svg"
 width="144.000000pt" height="144.000000pt" viewBox="0 0 144.000000 144.000000"
 preserveAspectRatio="xMidYMid meet">
<metadata>
Created by potrace 1.11, written by Peter Selinger 2001-2013
</metadata>
<g transform="translate(0.000000,144.000000) scale(0.100000,-0.100000)"
fill="#000000" stroke="none">
<path d="M0 720 l0 -590 720 0 720 0 0 590 0 590 -720 0 -720 0 0 -590z m177
503 c-3 -5 53 -8 124 -8 71 0 129 3 129 6 0 3 15 4 33 3 34 -3 101 -4 347 -5
85 -1 169 -2 185 -2 17 0 80 1 140 2 61 2 131 2 158 2 l47 -1 0 -490 c0 -493
0 -496 -32 -491 -4 0 -277 1 -608 1 l-600 1 0 489 0 489 38 4 c20 2 38 4 40 5
2 1 1 -1 -1 -5z"/>
<path d="M140 725 l0 -465 575 0 575 0 0 465 c0 398 -2 465 -14 465 -17 0 -29
-16 -34 -45 -2 -19 -59 -85 -71 -83 -3 0 -9 -1 -13 -2 -52 -17 -105 12 -140
76 -17 29 -28 42 -29 32 -4 -53 -26 -86 -71 -107 -82 -37 -164 10 -180 104 -4
25 -33 32 -36 8 -5 -44 -10 -55 -42 -88 -18 -19 -36 -34 -39 -33 -3 0 -8 -1
-11 -2 -19 -7 -41 -7 -46 1 -3 5 -9 7 -14 4 -5 -3 -27 12 -50 35 -29 29 -40
48 -40 70 0 23 -4 30 -20 30 -11 0 -19 -3 -19 -7 1 -5 1 -10 -1 -13 -1 -3 -4
-16 -6 -30 -5 -27 -63 -92 -75 -84 -4 2 -10 0 -13 -5 -5 -8 -34 -8 -43 -1 -2
2 -7 3 -12 4 -6 0 -16 7 -22 14 -7 6 -18 12 -24 12 -11 0 -33 43 -49 93 -3 9
-12 17 -21 17 -13 0 -15 -54 -15 -465z m360 265 c0 -5 -16 -12 -35 -16 -25 -4
-37 -13 -41 -28 -3 -12 -4 -133 -2 -269 l3 -247 27 -26 c36 -37 110 -44 156
-14 59 36 66 69 70 312 4 236 1 252 -49 270 -54 19 -29 28 76 28 65 0 105 -4
105 -10 0 -6 -14 -13 -30 -17 -17 -3 -35 -13 -39 -22 -5 -9 -11 -120 -13 -246
-4 -222 -5 -232 -29 -275 -13 -24 -44 -58 -67 -75 -39 -26 -53 -30 -126 -33
-93 -4 -138 12 -187 65 -46 49 -52 83 -58 337 l-6 239 -38 11 c-22 6 -35 14
-31 19 11 11 314 9 314 -3z m639 -37 c0 -41 -2 -45 -12 -30 -27 41 -34 46 -72
49 l-40 3 -3 -53 c-2 -47 0 -53 15 -50 10 2 25 17 33 33 l15 30 3 -43 c2 -23
2 -59 0 -80 l-3 -37 -15 30 c-24 48 -45 39 -45 -20 l0 -50 42 -3 c43 -3 59 7
91 54 11 16 12 13 7 -25 -3 -24 -8 -48 -11 -53 -7 -11 -234 -10 -234 1 0 5 7
11 15 15 12 4 15 28 15 126 0 98 -3 122 -15 126 -40 16 -5 24 100 24 l115 0
-1 -47z m-143 -413 l43 -95 17 40 c68 165 57 150 109 153 26 2 53 -2 58 -7 8
-8 6 -11 -5 -11 -22 0 -29 -37 -27 -147 1 -81 4 -97 22 -114 21 -19 20 -19
-54 -19 -64 1 -72 2 -56 14 14 11 17 30 17 112 0 58 -4 94 -9 88 -5 -5 -28
-55 -51 -111 -23 -57 -46 -103 -49 -103 -4 0 -29 49 -55 110 -27 60 -51 108
-55 106 -3 -2 -5 -47 -3 -100 3 -75 6 -96 18 -96 8 0 14 -4 14 -10 0 -5 -21
-10 -47 -10 -42 1 -46 2 -30 14 15 11 17 31 17 140 0 107 -2 126 -16 126 -8 0
-12 5 -9 10 4 6 30 10 57 8 l51 -3 43 -95z"/>
</g>
</svg>
